# xmcd
#
# Track frame offsets:
#	150
#	12181
#	23605
#	39615
#	54928
#	73012
#	87494
#	98310
#	111364
#	128545
#	141684
#	155284
#
# Disc length: 2272 seconds
#
# Revision: 1
# Processed by: cddbd v1.5.2PL0 Copyright (c) Steve Scherf et al.
# Submitted via: audiograbber 1.83.01
#
DISCID=9408de0c
DTITLE=Brenda Patterson - Brenda Patterson
DYEAR=1973
DGENRE=Blues
TTITLE0=Dance With Me Henry
TTITLE1=The Crippled Crow
TTITLE2=Hold An Old Friend's Hand
TTITLE3=Southern Brown
TTITLE4=Hope He'll Be Happier With Her
TTITLE5=Jesus On The Mainline
TTITLE6=End Of The Road
TTITLE7=I'm Gonna Be Strong
TTITLE8=Mine All Mine
TTITLE9=Bury Me Down By The River
TTITLE10=In MY Girlish Days
TTITLE11=Congratulations
EXTD=
EXTT0=
EXTT1=
EXTT2=
EXTT3=
EXTT4=
EXTT5=
EXTT6=
EXTT7=
EXTT8=
EXTT9=
EXTT10=
EXTT11=
PLAYORDER=
